<?xml version="1.0" encoding="UTF-8"?>
<!DOCTYPE svg PUBLIC "-//W3C//DTD SVG 1.1//EN" "http://www.w3.org/Graphics/SVG/1.1/DTD/svg11.dtd">
<!-- Creator: CorelDRAW (Evaluation Version) -->
<svg xmlns="http://www.w3.org/2000/svg" xml:space="preserve" width="66.1458mm" height="66.1458mm" version="1.1" style="shape-rendering:geometricPrecision; text-rendering:geometricPrecision; image-rendering:optimizeQuality; fill-rule:evenodd; clip-rule:evenodd"
viewBox="0 0 6614.58 6614.58"
 xmlns:xlink="http://www.w3.org/1999/xlink"
 xmlns:xodm="http://www.corel.com/coreldraw/odm/2003">
 <defs>
  <style type="text/css">
   <![CDATA[
    .fil0 {fill:#003399;fill-rule:nonzero}
   ]]>
  </style>
 </defs>
 <g id="Layer_x0020_1">
  <metadata id="CorelCorpID_0Corel-Layer"/>
  <path class="fil0" d="M3307.29 330.73c821.88,0 1566.02,333.19 2104.7,871.86 538.67,538.67 871.86,1282.82 871.86,2104.7 0,130.78 -8.47,259.6 -24.83,385.93l-1157.15 810.24 -268.26 -268.27c164.72,-270.41 259.62,-588.06 259.62,-927.9 0,-493.23 -199.89,-939.75 -523.04,-1262.9 -323.16,-323.15 -769.67,-523.04 -1262.9,-523.04 -493.23,0 -939.74,199.89 -1262.9,523.04 -323.15,323.15 -523.04,769.67 -523.04,1262.9 0,493.23 199.89,939.75 523.04,1262.9 323.16,323.15 769.67,523.04 1262.9,523.04 157.23,0 309.71,-20.34 454.96,-58.49l915.45 915.45c-410.19,213.16 -876.24,333.66 -1370.41,333.66 -821.88,0 -1566.02,-333.19 -2104.7,-871.86 -538.67,-538.67 -871.86,-1282.82 -871.86,-2104.7 0,-821.88 333.19,-1566.03 871.86,-2104.7 538.68,-538.67 1282.82,-871.86 2104.7,-871.86zm1017.03 3675.81l394.76 394.76 360.21 360.21 1130.46 -791.55c-109.19,480.21 -334.51,916.29 -644.86,1277.15l737.07 737.07 -869.83 252.71 -1977.64 -1977.64 869.83 -252.71z"/>
 </g>
</svg>
